HIERARCHY
ROOT ui
{
	 OFFSET 0 0 0
	 CHANNELS 3 XPosition YPosition Z Position
	 EndSite
	 {
	 OFFSET 0 -1 0
	 }
}
ROOT li
{
	 OFFSET 0 0 0
	 CHANNELS 3 XPosition YPosition Z Position
	 EndSite
	 {
	 OFFSET 0 -1 0
	 }
}
ROOT ul
{
	 OFFSET 0 0 0
	 CHANNELS 3 XPosition YPosition Z Position
	 EndSite
	 {
	 OFFSET 0 -1 0
	 }
}
ROOT ll
{
	 OFFSET 0 0 0
	 CHANNELS 3 XPosition YPosition Z Position
	 EndSite
	 {
	 OFFSET 0 -1 0
	 }
}
ROOT tt
{
	 OFFSET 0 0 0
	 CHANNELS 3 XPosition YPosition Z Position
	 EndSite
	 {
	 OFFSET 0 -1 0
	 }
}
ROOT tb
{
	 OFFSET 0 0 0
	 CHANNELS 3 XPosition YPosition Z Position
	 EndSite
	 {
	 OFFSET 0 -1 0
	 }
}
ROOT td
{
	 OFFSET 0 0 0
	 CHANNELS 3 XPosition YPosition Z Position
	 EndSite
	 {
	 OFFSET 0 -1 0
	 }
}
ROOT v
{
	 OFFSET 0 0 0
	 CHANNELS 3 XPosition YPosition Z Position
	 EndSite
	 {
	 OFFSET 0 -1 0
	 }
}
ROOT bn
{
	 OFFSET 0 0 0
	 CHANNELS 3 XPosition YPosition Z Position
	 EndSite
	 {
	 OFFSET 0 -1 0
	 }
}
MOTION
Frames: 21
Frame Time: 0.002
0.0014957150220870972	-0.0010083719491958618	0		0.48331173706054686	-2.361014892578125	0		-0.9312263793945312	0.07870690155029297	0		-0.7468373413085938	-2.134949951171875	0		1.513125	-0.42614566040039065	0		3.273278564453125	0.013405289649963379	0		4.581677734375	0.02397714614868164	0		5.63751416015625	0.11708493804931641	0		-0.09242544555664063	5.92362353515625	0		
0.07259220123291016	-0.0037192389965057374	0		0.4643064880371094	-2.363130126953125	0		-0.9330250244140625	0.08234434509277344	0		-0.8107182006835938	-2.130207275390625	0		1.4933800048828125	-0.41828759765625	0		3.295293701171875	0.006438471794128418	0		4.5806611328125	0.015368989944458008	0		5.65224755859375	0.09414788818359375	0		-0.20010723876953124	5.9211298828125	0		
0.003118988037109375	0.012098575592041015	0		0.488486083984375	-2.362017578125	0		-0.9306502685546875	0.08890995788574219	0		-0.74948095703125	-2.1267080078125	0		1.4998773193359376	-0.40389614868164064	0		3.27393896484375	0.02825759506225586	0		4.57417822265625	0.029865936279296876	0		5.63582373046875	0.11177969360351563	0		-0.08741750335693359	5.93068505859375	0		
0.0683846664428711	0.0024984099864959718	0		0.45899371337890627	-2.351927734375	0		-0.9443505249023437	0.08177271270751953	0		-0.7571835327148437	-2.128961669921875	0		1.485084716796875	-0.4151151123046875	0		3.261929443359375	0.003913368940353394	0		4.57236572265625	0.016285894393920898	0		5.61032470703125	0.1155857925415039	0		-0.09371531677246094	5.93238525390625	0		
-0.018852622985839843	0.009667624473571777	0		0.45353897094726564	-2.35225537109375	0		-0.9497064208984375	0.08150209045410156	0		-0.76468310546875	-2.132203369140625	0		1.4797086181640624	-0.415484375	0		3.25967822265625	0.009416746139526368	0		4.5542802734375	0.031023744583129884	0		5.60662646484375	0.09601596069335938	0		-0.11402997589111329	5.92135302734375	0		
-0.026169288635253907	-0.002586724042892456	0		0.43024029541015624	-2.358239501953125	0		-0.95480322265625	0.08124632263183594	0		-0.7698673706054687	-2.13246630859375	0		1.4745921630859375	-0.41583609008789063	0		3.27134033203125	-0.004311059951782227	0		4.54990966796875	0.015534921646118164	0		5.60565673828125	0.10242762756347656	0		-0.10369935607910157	5.931791015625	0		
0.05006855392456055	-0.0013314839601516724	0		0.4621416931152344	-2.37020068359375	0		-0.9596033325195312	0.08100752258300781	0		-0.7706615600585938	-2.12778564453125	0		1.449794677734375	-0.41480447387695313	0		3.230069580078125	0.024956151962280272	0		4.54921533203125	0.02101314163208008	0		5.59600341796875	0.1100287094116211	0		-0.10827688598632812	5.93151953125	0		
0.0467984619140625	0.00939175510406494	0		0.45182315063476564	-2.357365478515625	0		-0.9640703125	0.08078741455078126	0		-0.7731726684570313	-2.12604931640625	0		1.4603980712890625	-0.4103856506347656	0		3.2470693359375	-0.004811327934265136	0		4.53578369140625	0.022756425857543946	0		5.59222802734375	0.09255527496337891	0		-0.11156805419921875	5.9292509765625	0		
0.04454597473144531	0.0011218199729919433	0		0.4533975524902344	-2.370721435546875	0		-0.9681742553710937	0.08058732604980469	0		-0.7793885498046875	-2.12821923828125	0		1.436298828125	-0.4093048095703125	0		3.242363525390625	0.016858442306518555	0		4.5324228515625	0.008351443290710449	0		5.5839794921875	0.08420409393310548	0		-0.11547100830078125	5.929021484375	0		
0.04082192611694336	9.095879793167114E-4	0		0.4309103088378906	-2.353602783203125	0		-0.9718956909179688	0.0804078369140625	0		-0.7930337524414063	-2.1202236328125	0		1.4635745849609374	-0.4091280517578125	0		3.23629345703125	-0.0024175000190734862	0		4.523845703125	0.016084056854248047	0		5.5785869140625	0.10184629058837891	0		-0.13516502380371093	5.92010791015625	0		
0.025454490661621094	-0.001060297966003418	0		0.43432223510742185	-2.3639306640625	0		-0.9792986450195312	0.0763226318359375	0		-0.7865786743164063	-2.1285693359375	0		1.4202542724609375	-0.4076295166015625	0		3.2072392578125	0.012769138336181641	0		4.5253662109375	0.007668840885162354	0		5.57689111328125	0.08145604705810547	0		-0.13733741760253906	5.91890576171875	0		
-0.04242116546630859	0.002962439060211182	0		0.3913394775390625	-2.362376708984375	0		-0.9663505249023437	0.0698918685913086	0		-0.78550732421875	-2.12478759765625	0		1.4203741455078125	-0.4038912353515625	0		3.244851806640625	-0.01223384952545166	0		4.5114267578125	0.007577027797698975	0		5.57809765625	0.08905872344970703	0		-0.12298748016357422	5.9254306640625	0		
0.0350488395690918	0.003351578950881958	0		0.4368638610839844	-2.3554130859375	0		-0.9689020385742187	0.06977213287353516	0		-0.8199633178710938	-2.116326416015625	0		1.4178104248046874	-0.4040725402832031	0		3.232739990234375	0.011717117309570313	0		4.51501953125	0.015204620361328126	0		5.575546875	0.08877016448974609	0		-0.12735091400146484	5.92732568359375	0		
0.02491773796081543	0.005373225212097168	0		0.4285118103027344	-2.36243603515625	0		-0.986956787109375	0.07596355438232422	0		-0.7903345336914063	-2.125017578125	0		1.4276480712890625	-0.40345037841796877	0		3.19624609375	-0.005855556011199951	0		4.5087412109375	0.009049013137817382	0		5.5692333984375	0.08058999633789063	0		-0.14454374694824218	5.9184814453125	0		
0.028032751083374025	1.763000041246414E-4	0		0.42666961669921877	-2.362550537109375	0		-0.9887474975585937	0.07587904357910157	0		-0.831146728515625	-2.123389404296875	0		1.3969072265625	-0.4000533142089844	0		3.1896015625	0.002062211036682129	0		4.4956015625	-0.009946067810058594	0		5.56329638671875	0.07244200897216797	0		-0.146211181640625	5.91837890625	0		
0.019476600646972656	-0.006783339977264404	0		0.425197021484375	-2.3626474609375	0		-0.9942291259765625	0.07288248443603515	0		-0.7956763305664063	-2.127143310546875	0		1.39547119140625	-0.40016845703125	0		3.216818603515625	-0.01761674690246582	0		4.47732275390625	-0.0018075400590896607	0		5.54601904296875	0.08054222869873047	0		-0.14654795837402343	5.9172744140625	0		
0.025520036697387696	1.0894999839365482E-5	0		0.43596246337890626	-2.36894970703125	0		-0.9853507080078125	0.0706392364501953	0		-0.8645620727539063	-2.113955810546875	0		1.3974537353515626	-0.39632208251953127	0		3.204993896484375	-0.003543433904647827	0		4.50030810546875	0.0016027090549468994	0		5.55076953125	0.07126905822753907	0		-0.1333555450439453	5.92694189453125	0		
0.027809526443481444	0.0028911728858947755	0		0.42735159301757814	-2.358873291015625	0		-0.9879488525390625	0.07962397003173828	0		-0.7904601440429687	-2.12038916015625	0		1.3966832275390626	-0.39640408325195314	0		3.188843994140625	-0.024369268417358397	0		4.49954296875	0.0014797910451889039	0		5.545134765625	0.07822324371337891	0		-0.13404269409179687	5.9268798828125	0		
0.02427669906616211	-1.0684099793434143E-4	0		0.4159805908203125	-2.3517294921875	0		-0.9924991455078125	0.07565486145019532	0		-0.7909596557617188	-2.120434814453125	0		1.3931279296875	-0.40041580200195315	0		3.208620361328125	-0.010826316833496094	0		4.4859931640625	-0.0023789780139923094	0		5.54952783203125	0.07102247619628907	0		-0.13446067810058593	5.926828125	0		
0.016920001983642578	-0.007022012233734131	0		0.422531494140625	-2.362905029296875	0		-0.9648612670898438	0.06810108184814453	0		-0.7932396240234375	-2.1224375	0		1.386768310546875	-0.40735885620117185	0		3.17430517578125	-0.015265740394592286	0		4.4857646484375	-0.0024552400112152098	0		5.53930126953125	0.07112334442138672	0		-0.14981202697753906	5.9180615234375	0		
-0.05699720001220703	-6.962109804153442E-4	0		0.40539349365234373	-2.36863037109375	0		-0.9968038330078125	0.07265556335449219	0		-0.791232421875	-2.120510498046875	0		1.3818564453125	-0.40131103515625	0		3.17019140625	-0.02024067497253418	0		4.49159375	-0.010618709564208984	0		5.535095703125	0.061141059875488284	0		-0.14883213806152343	5.91700537109375	0		
